# xmcd CD database file
#
# Track frame offsets:
#	150
#	15014
#	30112
#	40949
#	53970
#	66273
#	77721
#	89130
#	103188
#	116339
#	130034
#	142107
#	156763
#	168218
#	182096
#	195870
#	208947
#	222770
#	234807
#	256827
#
# Disc length: 3607 seconds
#
# Revision: 0
# Processed by: cddbd v1.5.2PL0 Copyright (c) Steve Scherf et al.
# Submitted via: CDex 1.70beta2
#
DISCID=020e1514
DTITLE=Various Artist - christmas songs CD 1
DYEAR=1900
DGENRE=Jazz
TTITLE0=The Christmas Song - Nat King Cole
TTITLE1=Let it Snow, Let it Snow,Let it Snow - Woody Herman and his Orchestra
TTITLE2=Silent Night, Hol Night - Dinah Washington
TTITLE3=Christma in New Orleans - LouisArmstrong and Benny Carter's Orchestra
TTITLE4=Christmas Night In Harlem - LouisArmstrong and Benny Carter's Orchestra
TTITLE5=All I want for Christmas- Nat King Cole
TTITLE6=Gin for Christmas - Lionel Hampton and his orchestra
TTITLE7=The Christmas Song - Mel Tormé
TTITLE8=Cool Yule - Louis Armstrong
TTITLE9=Winter Weather - Benny Goodman and his orchestra
TTITLE10=White Chistmas - LouisArmstrong and Gordon Jenkin's orchestra
TTITLE11=May every day be Christmas - Louis Jordan and his orchestra
TTITLE12=Jingle Bells - Nat king Cole
TTITLE13=Winter Wonderland - LouisArmstrong and Gordon Jenkin's orchestra
TTITLE14=The Christmas Song - Les Brown and his Band of Renwon
TTITLE15=Christma Swing - Michel Warlop, Django Reinhardt
TTITLE16=THe Christmas Song - Jack Teagarden and his orchestra
TTITLE17=Snowfall - Claude Thornhill and his orchestra
TTITLE18=White Christmas - Charlie Parker Quintet
TTITLE19=Jingle Bells - Spike Jones a his city Slickers
EXTD=
EXTT0=
EXTT1=
EXTT2=
EXTT3=
EXTT4=
EXTT5=
EXTT6=
EXTT7=
EXTT8=
EXTT9=
EXTT10=
EXTT11=
EXTT12=
EXTT13=
EXTT14=
EXTT15=
EXTT16=
EXTT17=
EXTT18=
EXTT19=
PLAYORDER=
